<?xml version="1.0" encoding="utf-8"?>
<!-- Generator: Adobe Illustrator 16.0.0, SVG Export Plug-In . SVG Version: 6.00 Build 0)  -->
<!DOCTYPE svg PUBLIC "-//W3C//DTD SVG 1.1//EN" "http://www.w3.org/Graphics/SVG/1.1/DTD/svg11.dtd">
<svg version="1.1" id="Ebene_1" xmlns="http://www.w3.org/2000/svg" xmlns:xlink="http://www.w3.org/1999/xlink" x="0px" y="0px"
	 width="19px" height="12px" viewBox="125.932 61.788 19 12" enable-background="new 125.932 61.788 19 12" xml:space="preserve">
<g>
	<defs>
		<rect id="SVGID_1_" x="125.932" y="61.75" width="19" height="12"/>
	</defs>
	<clipPath id="SVGID_2_">
		<use xlink:href="#SVGID_1_"  overflow="visible"/>
	</clipPath>
	<g clip-path="url(#SVGID_2_)">
		<rect x="123.459" y="61.758" fill="#003671" width="23.945" height="11.985"/>
		<polygon fill="#FFFFFF" points="123.459,65.755 128.52,65.755 123.459,63.216 123.459,61.758 126.356,61.758 133.434,65.285 
			133.434,61.758 137.418,61.758 137.418,65.285 144.49,61.758 147.405,61.758 147.405,63.216 142.326,65.755 147.405,65.755 
			147.405,69.746 142.326,69.746 147.405,72.286 147.405,73.743 144.49,73.743 137.418,70.218 137.418,73.743 133.434,73.743 
			133.434,70.218 126.356,73.743 123.459,73.743 123.459,72.286 128.52,69.746 123.459,69.746 		"/>
		<polygon fill="#DC2F34" points="145.527,61.758 137.54,65.755 139.449,65.755 147.405,61.758 		"/>
		<polygon fill="#DC2F34" points="147.405,73.743 139.442,69.746 141.365,69.746 147.405,72.789 		"/>
		<polygon fill="#DC2F34" points="131.473,65.755 123.459,61.758 123.459,62.713 129.544,65.755 		"/>
		<polygon fill="#DC2F34" points="131.454,69.746 123.459,73.743 125.375,73.743 133.37,69.746 		"/>
		<polygon fill="#DC2F34" points="123.459,66.583 134.28,66.583 134.28,61.758 136.623,61.758 136.623,66.583 147.405,66.583 
			147.405,68.919 136.623,68.919 136.623,73.743 134.28,73.743 134.28,68.919 123.459,68.919 		"/>
	</g>
</g>
</svg>
