<?xml version="1.0" encoding="utf-8"?>
<!-- Generator: Adobe Illustrator 16.0.4, SVG Export Plug-In . SVG Version: 6.00 Build 0)  -->
<!DOCTYPE svg PUBLIC "-//W3C//DTD SVG 1.1//EN" "http://www.w3.org/Graphics/SVG/1.1/DTD/svg11.dtd">
<svg version="1.1" xmlns="http://www.w3.org/2000/svg" xmlns:xlink="http://www.w3.org/1999/xlink" x="0px" y="0px"
	 width="155.896px" height="76.547px" viewBox="0 0 155.896 76.547" enable-background="new 0 0 155.896 76.547"
	 xml:space="preserve">
<g id="Ebene_3">
	<g>
		<path fill="#E2001A" d="M0.075,69.682c0.326,0.011,33.001,0.91,68.857-1.77c46.168-3.451,75.71-11.263,85.435-22.591l1.528-1.78V0
			H0v69.68L0.075,69.682z"/>
	</g>
</g>
<g id="Ebene_3_Kopie">
	<path fill="#FFDE10" d="M13.973,71.86c-8.455,0-13.7-0.139-13.958-0.146H0v4.832h155.896V46.66
		C136.206,69.555,48.451,71.86,13.973,71.86z"/>
</g>
<g id="Ebene_1_Kopie">
	<path fill="#FFDE10" d="M125.645,53.159c0.756,0,1.566-1.023,1.254-1.946l-11.138-30.186c-0.462-1.085-1.653-1.957-2.909-1.957
		c0,0-3.529-0.001-3.655-0.001c-1.33,0-2.474,0.857-2.93,1.995L95.111,51.159c-0.348,0.907,0.44,1.998,1.337,1.998l4.3,0.001
		c1.131-0.002,2.147-0.968,2.578-1.918l1.322-3.73h12.691l1.329,3.752c0.299,0.905,1.442,1.897,2.451,1.896L125.645,53.159z
		 M107.135,40.258l3.886-11.45l3.887,11.449L107.135,40.258z"/>
	<path fill="#FFDE10" d="M90.492,45.903l-15.994-0.001l0-6.838h13.349c1.056,0,2.038-0.906,2.038-1.918v-3.215
		c0-1.03-0.998-1.912-1.995-1.912H74.498l0.001-5.647l14.854,0c1.296,0,2.293-1.041,2.293-2.3v-2.726
		c0-1.169-0.822-2.279-2.03-2.279H68.324c-1.022,0-2.01,0.984-2.01,2.01l-0.002,29.754c0,1.189,0.91,2.322,2.034,2.324l22.145-0.001
		c1.175,0.001,2.035-1.133,2.035-2.323v-2.604C92.526,47.038,91.618,45.903,90.492,45.903"/>
	<path fill="#FFDE10" d="M59.332,19.047c1.137,0,1.906,0.822,1.906,1.88l-0.001,29.928c0,1.137-0.697,2.301-1.881,2.301h-4.23
		c-1.148,0-1.867-1.164-1.867-2.301l0-16.765l-5.18,9.065c-0.259,0.413-0.725,1.089-1.503,1.088h-2.589
		c-0.778,0-1.192-0.674-1.451-1.089l-5.231-9.065l-0.001,16.712c0,1.19-0.701,2.354-1.812,2.354l-4.496-0.001
		c-1.128,0-1.826-1.162-1.826-2.353l0.001-29.875c0-0.954,0.824-1.88,1.757-1.88h4.1c1.496,0,2.484,0.561,3.204,1.88l7.051,12.593
		l7.105-12.593c0.637-1.189,1.4-1.88,2.839-1.88h3.967"/>
</g>
<g id="help">
</g>
</svg>
